<svg width="249" height="77" viewBox="0 0 249 77" fill="none"
   xmlns="http://www.w3.org/2000/svg">
   <path d="M15.177 36.656L17.097 32.272C17.481 32.4853 17.961 32.6987 18.537 32.912C19.1344 33.1253 19.753 33.3067 20.393 33.456C21.0544 33.584 21.641 33.648 22.153 33.648C22.7717 33.648 23.2837 33.5627 23.689 33.392C24.1157 33.2213 24.4357 33.008 24.649 32.752C24.8624 32.4747 24.969 32.208 24.969 31.952C24.969 31.696 24.7984 31.44 24.457 31.184C24.137 30.9067 23.721 30.6293 23.209 30.352C22.697 30.0533 22.1637 29.744 21.609 29.424C20.905 28.9973 20.169 28.5493 19.401 28.08C18.6544 27.6107 17.9504 27.088 17.289 26.512C16.6277 25.936 16.0944 25.2853 15.689 24.56C15.2837 23.8133 15.081 22.9813 15.081 22.064C15.1024 20.8693 15.433 19.8027 16.073 18.864C16.7344 17.9253 17.673 17.1893 18.889 16.656C20.105 16.1013 21.5344 15.824 23.177 15.824C24.265 15.824 25.385 15.984 26.537 16.304C27.7104 16.6027 28.7237 17.04 29.577 17.616L27.849 21.552C27.081 21.2747 26.441 21.072 25.929 20.944C25.4384 20.816 24.9904 20.7307 24.585 20.688C24.1797 20.624 23.7317 20.592 23.241 20.592C22.5797 20.592 22.057 20.752 21.673 21.072C21.289 21.3707 21.097 21.7227 21.097 22.128C21.097 22.4267 21.2464 22.704 21.545 22.96C21.865 23.216 22.2704 23.472 22.761 23.728C23.273 23.9627 23.817 24.2507 24.393 24.592C25.161 25.04 25.929 25.5093 26.697 26C27.4864 26.4907 28.201 27.0347 28.841 27.632C29.481 28.2293 29.993 28.8907 30.377 29.616C30.7824 30.32 30.985 31.12 30.985 32.016C30.985 33.232 30.633 34.3307 29.929 35.312C29.2464 36.272 28.2544 37.0293 26.953 37.584C25.6517 38.1387 24.105 38.416 22.313 38.416C21.7584 38.416 21.1504 38.3733 20.489 38.288C19.849 38.2027 19.1984 38.0853 18.537 37.936C17.897 37.7653 17.2784 37.5733 16.681 37.36C16.105 37.1467 15.6037 36.912 15.177 36.656ZM46.213 27.408L54.565 36.56L50.981 39.664L42.373 30.672L46.213 27.408ZM43.813 15.792C46.181 15.792 48.197 16.2933 49.861 17.296C51.5464 18.2987 52.837 19.6427 53.733 21.328C54.629 23.0133 55.077 24.9013 55.077 26.992C55.077 29.232 54.597 31.216 53.637 32.944C52.6984 34.672 51.3757 36.0267 49.669 37.008C47.9837 37.968 46.0317 38.448 43.813 38.448C41.509 38.448 39.5144 37.9467 37.829 36.944C36.1437 35.9413 34.8424 34.5867 33.925 32.88C33.029 31.1733 32.581 29.2853 32.581 27.216C32.581 24.976 33.061 23.0027 34.021 21.296C34.981 19.568 36.3037 18.224 37.989 17.264C39.6957 16.2827 41.637 15.792 43.813 15.792ZM38.565 27.184C38.565 28.4 38.7677 29.4987 39.173 30.48C39.5997 31.44 40.197 32.1973 40.965 32.752C41.7544 33.3067 42.693 33.584 43.781 33.584C44.7837 33.584 45.6797 33.3387 46.469 32.848C47.2797 32.3573 47.9197 31.6213 48.389 30.64C48.8584 29.6587 49.093 28.4427 49.093 26.992C49.093 25.776 48.8797 24.6987 48.453 23.76C48.0477 22.8 47.4504 22.0427 46.661 21.488C45.893 20.9333 44.965 20.656 43.877 20.656C42.917 20.656 42.0317 20.9333 41.221 21.488C40.4104 22.0213 39.7597 22.7787 39.269 23.76C38.7997 24.72 38.565 25.8613 38.565 27.184ZM64.0913 16.24V29.392C64.0913 30.288 64.2513 31.056 64.5713 31.696C64.9126 32.3147 65.3819 32.784 65.9793 33.104C66.5766 33.424 67.2593 33.584 68.0273 33.584C68.7953 33.584 69.4673 33.424 70.0433 33.104C70.6406 32.784 71.1099 32.3147 71.4513 31.696C71.7926 31.056 71.9633 30.288 71.9633 29.392V16.24H77.7873V29.68C77.7873 31.5573 77.3713 33.1573 76.5393 34.48C75.7286 35.7813 74.5873 36.7733 73.1153 37.456C71.6646 38.1173 69.9686 38.448 68.0273 38.448C66.1073 38.448 64.4113 38.1173 62.9393 37.456C61.4673 36.7733 60.3153 35.7813 59.4833 34.48C58.6726 33.1573 58.2673 31.5573 58.2673 29.68V16.24H64.0913ZM93.4993 29.136L91.3233 23.216L89.2433 29.136H93.4993ZM88.5073 16.24H94.3313L102.459 37.744L96.7313 38.32L95.1633 33.712H87.6433L86.1393 38H80.3473L88.5073 16.24ZM115.065 38H105.337V16.24H115.193C117.433 16.24 119.311 16.7093 120.825 17.648C122.361 18.5867 123.513 19.8667 124.281 21.488C125.071 23.088 125.465 24.9227 125.465 26.992C125.465 29.2533 125.017 31.2053 124.121 32.848C123.247 34.4907 122.031 35.76 120.473 36.656C118.916 37.552 117.113 38 115.065 38ZM114.905 20.816H111.161V33.424H114.681C115.577 33.424 116.377 33.1893 117.081 32.72C117.807 32.2507 118.383 31.536 118.809 30.576C119.236 29.616 119.449 28.4213 119.449 26.992C119.449 25.7973 119.268 24.7413 118.905 23.824C118.564 22.8853 118.052 22.1493 117.369 21.616C116.708 21.0827 115.887 20.816 114.905 20.816ZM137.954 20.816H134.818V26.576H138.018C138.615 26.576 139.138 26.4587 139.586 26.224C140.055 25.968 140.418 25.616 140.674 25.168C140.951 24.72 141.09 24.2187 141.09 23.664C141.09 23.024 140.962 22.4907 140.706 22.064C140.45 21.6373 140.087 21.328 139.618 21.136C139.17 20.9227 138.615 20.816 137.954 20.816ZM128.994 16.24H138.146C139.767 16.24 141.25 16.496 142.594 17.008C143.959 17.52 145.047 18.32 145.858 19.408C146.69 20.496 147.106 21.9147 147.106 23.664C147.106 24.9867 146.828 26.128 146.274 27.088C145.74 28.048 145.036 28.8267 144.162 29.424L148.962 38H142.21L138.69 31.152C138.37 31.152 138.05 31.152 137.73 31.152C137.41 31.152 137.09 31.152 136.77 31.152H134.818V38H128.994V16.24ZM161.469 38.448C159.165 38.448 157.171 37.9467 155.485 36.944C153.8 35.9413 152.499 34.5867 151.581 32.88C150.685 31.1733 150.237 29.2853 150.237 27.216C150.237 24.976 150.717 23.0027 151.677 21.296C152.637 19.568 153.96 18.224 155.645 17.264C157.352 16.2827 159.293 15.792 161.469 15.792C163.837 15.792 165.853 16.2933 167.517 17.296C169.203 18.2987 170.493 19.6427 171.389 21.328C172.285 23.0133 172.733 24.9013 172.733 26.992C172.733 29.232 172.253 31.216 171.293 32.944C170.355 34.672 169.032 36.0267 167.325 37.008C165.64 37.968 163.688 38.448 161.469 38.448ZM161.437 33.584C162.44 33.584 163.336 33.3387 164.125 32.848C164.936 32.3573 165.576 31.6213 166.045 30.64C166.515 29.6587 166.749 28.4427 166.749 26.992C166.749 25.776 166.536 24.6987 166.109 23.76C165.704 22.8 165.107 22.0427 164.317 21.488C163.549 20.9333 162.621 20.656 161.533 20.656C160.573 20.656 159.688 20.9333 158.877 21.488C158.067 22.0213 157.416 22.7787 156.925 23.76C156.456 24.72 156.221 25.8613 156.221 27.184C156.221 28.4 156.424 29.4987 156.829 30.48C157.256 31.44 157.853 32.1973 158.621 32.752C159.411 33.3067 160.349 33.584 161.437 33.584ZM182.068 38H176.244V16.24H181.652L188.468 25.84L190.132 28.048L190.036 16.24H195.86V38H190.42L183.7 28.784L182.068 26.544V38ZM216.93 38H200.994V16.24H215.426L215.97 20.816H206.818V24.784H213.506L214.05 29.36H206.818V33.424H216.386L216.93 38ZM218.615 36.656L220.535 32.272C220.919 32.4853 221.399 32.6987 221.975 32.912C222.572 33.1253 223.191 33.3067 223.831 33.456C224.492 33.584 225.079 33.648 225.591 33.648C226.209 33.648 226.721 33.5627 227.127 33.392C227.553 33.2213 227.873 33.008 228.087 32.752C228.3 32.4747 228.407 32.208 228.407 31.952C228.407 31.696 228.236 31.44 227.895 31.184C227.575 30.9067 227.159 30.6293 226.647 30.352C226.135 30.0533 225.601 29.744 225.047 29.424C224.343 28.9973 223.607 28.5493 222.839 28.08C222.092 27.6107 221.388 27.088 220.727 26.512C220.065 25.936 219.532 25.2853 219.127 24.56C218.721 23.8133 218.519 22.9813 218.519 22.064C218.54 20.8693 218.871 19.8027 219.511 18.864C220.172 17.9253 221.111 17.1893 222.327 16.656C223.543 16.1013 224.972 15.824 226.615 15.824C227.703 15.824 228.823 15.984 229.975 16.304C231.148 16.6027 232.161 17.04 233.015 17.616L231.287 21.552C230.519 21.2747 229.879 21.072 229.367 20.944C228.876 20.816 228.428 20.7307 228.023 20.688C227.617 20.624 227.169 20.592 226.679 20.592C226.017 20.592 225.495 20.752 225.111 21.072C224.727 21.3707 224.535 21.7227 224.535 22.128C224.535 22.4267 224.684 22.704 224.983 22.96C225.303 23.216 225.708 23.472 226.199 23.728C226.711 23.9627 227.255 24.2507 227.831 24.592C228.599 25.04 229.367 25.5093 230.135 26C230.924 26.4907 231.639 27.0347 232.279 27.632C232.919 28.2293 233.431 28.8907 233.815 29.616C234.22 30.32 234.423 31.12 234.423 32.016C234.423 33.232 234.071 34.3307 233.367 35.312C232.684 36.272 231.692 37.0293 230.391 37.584C229.089 38.1387 227.543 38.416 225.751 38.416C225.196 38.416 224.588 38.3733 223.927 38.288C223.287 38.2027 222.636 38.0853 221.975 37.936C221.335 37.7653 220.716 37.5733 220.119 37.36C219.543 37.1467 219.041 36.912 218.615 36.656Z" fill="#041C40"/>
   <path d="M45.6648 54.2799H31.6113C30.8285 55.7244 30.6099 57.0054 30.6421 60.1723C30.9335 62.6786 31.1428 64.0246 31.6113 66.3103C31.9356 68.7213 32.2599 70.0084 33.0651 72.2027C34.1582 73.78 34.8767 74.5565 36.4573 75.6399C37.3118 75.8896 37.8915 75.8896 39.1226 75.6399C91.46 54.2799 161.728 54.2799 208.492 75.6399C210.097 75.8433 210.861 75.8584 211.884 75.6399C213.421 74.7949 214.226 74.0844 215.519 72.2027C216.58 69.8781 216.958 68.5866 217.215 66.3103C217.837 61.7065 217.889 59.0802 217.215 54.2799H203.646L202.677 61.3999C140.826 51.284 106.447 51.2597 45.6648 61.3999V54.2799Z" fill="#75C60C" stroke="#75C60C"/>
   <path d="M44.8997 50.4585H32.8762C33.8133 46.9602 38.7701 44.0467 38.7701 44.0467C38.7701 44.0467 44.2104 47.1396 44.8997 50.4585Z" fill="#041C40" stroke="#041C40"/>
   <path d="M216.303 50.4585H204.28C205.217 46.9602 210.174 44.0467 210.174 44.0467C210.174 44.0467 215.614 47.1396 216.303 50.4585Z" fill="#041C40" stroke="#041C40"/>
   <path d="M1 44.883L32.8761 47.6708L1 50.4585V47.6708V44.883Z" fill="#75C60C" stroke="#75C60C"/>
   <path d="M76.7755 50.4585L44.8994 47.6708L76.7755 44.883L76.7755 47.6708L76.7755 50.4585Z" fill="#75C60C" stroke="#75C60C"/>
   <path d="M172.404 44.883L204.28 47.6708L172.404 50.4585V47.6708V44.883Z" fill="#75C60C" stroke="#75C60C"/>
   <path d="M248.179 50.4585L216.303 47.6708L248.179 44.883L248.179 47.6708L248.179 50.4585Z" fill="#75C60C" stroke="#75C60C"/>
   <path d="M92.1544 63.8085C112.688 60.8839 139.284 61.6405 155.907 63.8085C132.602 80.0908 115.459 79.5739 92.1544 63.8085Z" fill="#041C40" stroke="#041C40"/>
   <path d="M86.6293 47.6407L86.0693 46.1637L85.5373 47.6407H86.6293ZM85.5793 44.7777H86.6013L88.4143 49.4817L87.3363 49.6077L86.9513 48.5087H85.2223L84.8513 49.5377H83.7593L85.5793 44.7777ZM90.8473 49.5377H89.7553V44.7777H90.8473V49.5377ZM96.0481 49.5377H94.9561V44.7777H96.7061C97.0608 44.7777 97.3828 44.836 97.6721 44.9527C97.9614 45.0647 98.1924 45.242 98.3651 45.4847C98.5424 45.7227 98.6311 46.0284 98.6311 46.4017C98.6311 46.677 98.5751 46.9174 98.4631 47.1227C98.3558 47.328 98.2088 47.496 98.0221 47.6267C97.8354 47.7574 97.6231 47.8554 97.3851 47.9207C97.1471 47.986 96.9021 48.0187 96.6501 48.0187H96.0481V49.5377ZM96.6711 45.6597H96.0481V47.1437H96.6921C96.8461 47.1437 96.9814 47.1157 97.0981 47.0597C97.2194 47.0037 97.3128 46.922 97.3781 46.8147C97.4481 46.7027 97.4854 46.5744 97.4901 46.4297C97.4901 46.257 97.4574 46.1147 97.3921 46.0027C97.3268 45.886 97.2334 45.7997 97.1121 45.7437C96.9908 45.6877 96.8438 45.6597 96.6711 45.6597ZM102.116 49.6357C101.617 49.6357 101.188 49.526 100.828 49.3067C100.469 49.0874 100.194 48.791 100.002 48.4177C99.811 48.0444 99.7153 47.6314 99.7153 47.1787C99.7153 46.6887 99.818 46.257 100.023 45.8837C100.229 45.5057 100.511 45.2117 100.87 45.0017C101.23 44.787 101.645 44.6774 102.116 44.6727C102.625 44.6727 103.057 44.7824 103.411 45.0017C103.771 45.221 104.044 45.5174 104.23 45.8907C104.422 46.2594 104.517 46.6724 104.517 47.1297C104.517 47.6197 104.415 48.0537 104.209 48.4317C104.009 48.805 103.729 49.099 103.369 49.3137C103.01 49.5237 102.592 49.631 102.116 49.6357ZM102.109 48.7187C102.347 48.7187 102.562 48.6604 102.753 48.5437C102.945 48.427 103.096 48.252 103.208 48.0187C103.325 47.7807 103.383 47.4844 103.383 47.1297C103.383 46.831 103.332 46.5674 103.229 46.3387C103.131 46.11 102.989 45.9304 102.802 45.7997C102.616 45.6644 102.389 45.5967 102.123 45.5967C101.899 45.5967 101.689 45.662 101.493 45.7927C101.297 45.9234 101.141 46.1054 101.024 46.3387C100.908 46.572 100.849 46.8497 100.849 47.1717C100.849 47.4704 100.898 47.7364 100.996 47.9697C101.099 48.203 101.244 48.3874 101.43 48.5227C101.622 48.6534 101.848 48.7187 102.109 48.7187ZM112.112 44.7777L110.719 49.5377H109.69L108.815 46.3107L107.968 49.5377H106.939L105.511 44.8337L106.596 44.7077L107.471 48.1517L108.276 44.7777H109.368L110.222 48.1517L111.02 44.7777H112.112ZM116.872 49.5377H113.456V44.7777H116.459L116.592 45.6387H114.548V46.7097H116.06L116.193 47.5707H114.548V48.6837H116.732L116.872 49.5377ZM119.999 45.6597H119.376V47.0107H120.02C120.174 47.0107 120.31 46.985 120.426 46.9337C120.548 46.8824 120.643 46.8077 120.713 46.7097C120.783 46.6117 120.818 46.4904 120.818 46.3457C120.818 46.187 120.786 46.0564 120.72 45.9537C120.655 45.851 120.562 45.7764 120.44 45.7297C120.324 45.683 120.177 45.6597 119.999 45.6597ZM118.284 44.7777H120.034C120.389 44.7777 120.711 44.8337 121 44.9457C121.29 45.053 121.521 45.221 121.693 45.4497C121.871 45.6737 121.959 45.9654 121.959 46.3247C121.959 46.614 121.892 46.866 121.756 47.0807C121.621 47.2907 121.448 47.4564 121.238 47.5777L122.344 49.5377H121.112L120.23 47.8857C120.156 47.8904 120.083 47.8927 120.013 47.8927C119.943 47.888 119.873 47.8857 119.803 47.8857H119.376V49.5377H118.284V44.7777ZM127.104 49.5377H123.688V44.7777H126.691L126.824 45.6387H124.78V46.7097H126.292L126.425 47.5707H124.78V48.6837H126.964L127.104 49.5377ZM130.49 49.5377H128.516V44.7777H130.504C130.999 44.7777 131.41 44.8804 131.736 45.0857C132.063 45.291 132.308 45.571 132.471 45.9257C132.639 46.2757 132.723 46.677 132.723 47.1297C132.723 47.6244 132.632 48.0514 132.45 48.4107C132.268 48.77 132.009 49.0477 131.673 49.2437C131.342 49.435 130.948 49.533 130.49 49.5377ZM130.49 45.6667H129.608V48.6487H130.434C130.663 48.6487 130.864 48.5974 131.036 48.4947C131.209 48.3874 131.344 48.2217 131.442 47.9977C131.54 47.7737 131.589 47.4844 131.589 47.1297C131.589 46.8357 131.547 46.579 131.463 46.3597C131.384 46.1404 131.263 45.97 131.099 45.8487C130.941 45.7274 130.738 45.6667 130.49 45.6667ZM136.185 49.2367L136.5 48.3827C136.589 48.4294 136.698 48.4784 136.829 48.5297C136.96 48.5764 137.097 48.616 137.242 48.6487C137.387 48.6814 137.52 48.6977 137.641 48.6977C137.804 48.6977 137.94 48.679 138.047 48.6417C138.159 48.6044 138.241 48.553 138.292 48.4877C138.348 48.4177 138.376 48.3407 138.376 48.2567C138.376 48.1774 138.334 48.1027 138.25 48.0327C138.171 47.9627 138.068 47.8927 137.942 47.8227C137.816 47.748 137.688 47.671 137.557 47.5917C137.398 47.4937 137.235 47.3934 137.067 47.2907C136.899 47.1834 136.743 47.0667 136.598 46.9407C136.458 46.8147 136.344 46.6747 136.255 46.5207C136.171 46.362 136.129 46.187 136.129 45.9957C136.134 45.7437 136.204 45.5197 136.339 45.3237C136.474 45.123 136.67 44.9667 136.927 44.8547C137.184 44.738 137.487 44.6797 137.837 44.6797C138.075 44.6797 138.318 44.7147 138.565 44.7847C138.812 44.8547 139.027 44.9434 139.209 45.0507L138.866 45.8487C138.735 45.7927 138.616 45.7484 138.509 45.7157C138.402 45.6784 138.294 45.6504 138.187 45.6317C138.084 45.6084 137.972 45.5967 137.851 45.5967C137.678 45.5967 137.536 45.634 137.424 45.7087C137.317 45.7787 137.263 45.8767 137.263 46.0027C137.263 46.096 137.3 46.1777 137.375 46.2477C137.45 46.3177 137.55 46.3854 137.676 46.4507C137.802 46.516 137.933 46.593 138.068 46.6817C138.236 46.7797 138.404 46.88 138.572 46.9827C138.745 47.0854 138.901 47.1997 139.041 47.3257C139.181 47.4517 139.293 47.5917 139.377 47.7457C139.466 47.895 139.51 48.07 139.51 48.2707C139.51 48.532 139.435 48.7654 139.286 48.9707C139.141 49.1714 138.931 49.3324 138.656 49.4537C138.385 49.5704 138.056 49.6287 137.669 49.6287C137.557 49.6287 137.433 49.617 137.298 49.5937C137.163 49.575 137.025 49.547 136.885 49.5097C136.75 49.4724 136.619 49.4304 136.493 49.3837C136.372 49.337 136.269 49.288 136.185 49.2367ZM143.067 49.5377H141.968V47.6757L140.435 44.9807L141.499 44.6797L142.507 46.6257L143.578 44.7777H144.719L143.06 47.6967L143.067 49.5377ZM145.768 49.2367L146.083 48.3827C146.171 48.4294 146.281 48.4784 146.412 48.5297C146.542 48.5764 146.68 48.616 146.825 48.6487C146.969 48.6814 147.102 48.6977 147.224 48.6977C147.387 48.6977 147.522 48.679 147.63 48.6417C147.742 48.6044 147.823 48.553 147.875 48.4877C147.931 48.4177 147.959 48.3407 147.959 48.2567C147.959 48.1774 147.917 48.1027 147.833 48.0327C147.753 47.9627 147.651 47.8927 147.525 47.8227C147.399 47.748 147.27 47.671 147.14 47.5917C146.981 47.4937 146.818 47.3934 146.65 47.2907C146.482 47.1834 146.325 47.0667 146.181 46.9407C146.041 46.8147 145.926 46.6747 145.838 46.5207C145.754 46.362 145.712 46.187 145.712 45.9957C145.716 45.7437 145.786 45.5197 145.922 45.3237C146.057 45.123 146.253 44.9667 146.51 44.8547C146.766 44.738 147.07 44.6797 147.42 44.6797C147.658 44.6797 147.9 44.7147 148.148 44.7847C148.395 44.8547 148.61 44.9434 148.792 45.0507L148.449 45.8487C148.318 45.7927 148.199 45.7484 148.092 45.7157C147.984 45.6784 147.877 45.6504 147.77 45.6317C147.667 45.6084 147.555 45.5967 147.434 45.5967C147.261 45.5967 147.119 45.634 147.007 45.7087C146.899 45.7787 146.846 45.8767 146.846 46.0027C146.846 46.096 146.883 46.1777 146.958 46.2477C147.032 46.3177 147.133 46.3854 147.259 46.4507C147.385 46.516 147.515 46.593 147.651 46.6817C147.819 46.7797 147.987 46.88 148.155 46.9827C148.327 47.0854 148.484 47.1997 148.624 47.3257C148.764 47.4517 148.876 47.5917 148.96 47.7457C149.048 47.895 149.093 48.07 149.093 48.2707C149.093 48.532 149.018 48.7654 148.869 48.9707C148.724 49.1714 148.514 49.3324 148.239 49.4537C147.968 49.5704 147.639 49.6287 147.252 49.6287C147.14 49.6287 147.016 49.617 146.881 49.5937C146.745 49.575 146.608 49.547 146.468 49.5097C146.332 49.4724 146.202 49.4304 146.076 49.3837C145.954 49.337 145.852 49.288 145.768 49.2367ZM153.979 44.7777L154.112 45.6387H152.537V49.5377H151.445V45.6387H150.017V44.7777H153.979ZM158.876 49.5377H155.46V44.7777H158.463L158.596 45.6387H156.552V46.7097H158.064L158.197 47.5707H156.552V48.6837H158.736L158.876 49.5377ZM162.767 48.0747L162.333 48.1307L161.381 46.9407V49.5377H160.289V44.7777H161.017L162.536 46.7797L163.929 44.7777H164.629V49.5377H163.537V47.0177L162.767 48.0747Z" fill="#041C40"/>
</svg>
